<svg xmlns="http://www.w3.org/2000/svg" viewBox="0 0 337.84 354.13"><defs><style>.cls-1{fill:#fff;}.cls-2{fill:#f9f9f9;}</style></defs><title>logo-syncready-vector</title><g id="Layer_3" data-name="Layer 3"><path class="cls-1" d="M104.56,103.16l21,21c60-53,127.05-67.06,200.51-34.07,46.14,20.72,76.23,57,93.65,105.73a4.66,4.66,0,0,1-4.4,6.22c-16.14,0-31.36.09-46.54-.66-3-.15-6.69-4.6-8.56-7.91C328.61,137.53,265,113,207.27,136.11c-15,6-28.46,16-44.47,25.23l21.37,21.38a4.17,4.17,0,0,1-2.95,7.12l-78.31,0A5.84,5.84,0,0,1,97.06,184c0-21.83,0-60.29.38-78A4.17,4.17,0,0,1,104.56,103.16Z" transform="translate(-82.14 -72.38)"/><path class="cls-1" d="M337,335.6l-19-19a3.86,3.86,0,0,1,2.73-6.59l76-.13a5.82,5.82,0,0,1,5.84,5.83c0,24.07-.07,49.65-.1,75.52a3.86,3.86,0,0,1-6.59,2.72l-19.33-19.33C320,425.18,256.8,440,186.13,413.72c-48.29-18-88-61.17-103.77-110.24a4.64,4.64,0,0,1,4.43-6c15.79,0,31.35-.22,46.88.38,2.71.11,6,4.37,7.76,7.44,29.42,52.12,86.12,77.11,141.6,62C303.23,361.72,320.93,351.65,337,335.6Z" transform="translate(-82.14 -72.38)"/></g><g id="Layer_5" data-name="Layer 5"><path class="cls-2" d="M318.9,174.83H209.62a3.17,3.17,0,0,0-3.18,3.17v63.11h-29a3.18,3.18,0,0,0-3.18,3.17v53.81a19.28,19.28,0,0,0,19.25,19.25H302.83a19.27,19.27,0,0,0,19.24-19.25V178A3.17,3.17,0,0,0,318.9,174.83ZM180.64,298.09V247.46h25.8v50.63a12.9,12.9,0,0,1-25.8,0Zm135.08,0a12.91,12.91,0,0,1-12.9,12.9h-95a19.17,19.17,0,0,0,5-12.9V181.18H315.72V298.09Z" transform="translate(-82.14 -72.38)"/><path class="cls-2" d="M259.8,211.49h40.68a3.17,3.17,0,1,0,0-6.34H259.8a3.17,3.17,0,0,0,0,6.34Z" transform="translate(-82.14 -72.38)"/><path class="cls-2" d="M259.8,246.37h40.68a3.18,3.18,0,1,0,0-6.35H259.8a3.18,3.18,0,0,0,0,6.35Z" transform="translate(-82.14 -72.38)"/><path class="cls-2" d="M259.8,281.24h40.68a3.18,3.18,0,1,0,0-6.35H259.8a3.18,3.18,0,0,0,0,6.35Z" transform="translate(-82.14 -72.38)"/><path class="cls-2" d="M230.51,215.07a3.18,3.18,0,0,0,2.31,1h0a3.21,3.21,0,0,0,2.32-1l17.44-19.1a3.17,3.17,0,1,0-4.69-4.28l-15.13,16.57-4.71-5a3.18,3.18,0,0,0-4.62,4.36Z" transform="translate(-82.14 -72.38)"/><path class="cls-2" d="M247.91,228l-15.13,16.57-4.72-5a3.17,3.17,0,1,0-4.61,4.36l7.06,7.47a3.15,3.15,0,0,0,2.31,1h0a3.18,3.18,0,0,0,2.32-1l17.44-19.09a3.17,3.17,0,1,0-4.69-4.28Z" transform="translate(-82.14 -72.38)"/><path class="cls-2" d="M247.91,264.42,232.78,281l-4.72-5a3.17,3.17,0,1,0-4.61,4.36l7.06,7.47a3.15,3.15,0,0,0,2.31,1h0a3.22,3.22,0,0,0,2.32-1l17.44-19.09a3.18,3.18,0,0,0-4.69-4.29Z" transform="translate(-82.14 -72.38)"/><path class="cls-2" d="M317.65,174.83H208.36a3.17,3.17,0,0,0-3.17,3.17v63.11h-29a3.17,3.17,0,0,0-3.18,3.17v53.81a19.28,19.28,0,0,0,19.25,19.25H301.57c10.62,0,19.25-8.64,21.76-19.25V178C320.82,176.25,319.4,174.83,317.65,174.83ZM179.39,298.09V247.46h25.8v50.63a12.9,12.9,0,0,1-25.8,0Zm135.08,0a12.91,12.91,0,0,1-12.9,12.9h-95a19.22,19.22,0,0,0,5-12.9V181.18H314.47V298.09Z" transform="translate(-82.14 -72.38)"/></g></svg>